<svg width="131" height="41" viewBox="0 0 131 41" fill="none" xmlns="http://www.w3.org/2000/svg">
<path d="M1 8.84534C1 4.7032 4.35786 1.34534 8.5 1.34534H122.5C126.642 1.34534 130 4.7032 130 8.84534V32.8453C130 36.9875 126.642 40.3453 122.5 40.3453H8.5C4.35786 40.3453 1 36.9875 1 32.8453V8.84534Z" fill="black"/>
<path d="M1 8.84534C1 4.7032 4.35786 1.34534 8.5 1.34534H122.5C126.642 1.34534 130 4.7032 130 8.84534V32.8453C130 36.9875 126.642 40.3453 122.5 40.3453H8.5C4.35786 40.3453 1 36.9875 1 32.8453V8.84534Z" stroke="#BFC8D1"/>
<path d="M66.1125 22.3595C63.8476 22.3595 62.0016 24.1037 62.0016 26.5061C62.0016 28.8939 63.8476 30.6528 66.1125 30.6528C68.3783 30.6528 70.2243 28.8939 70.2243 26.5061C70.2234 24.1037 68.3774 22.3595 66.1125 22.3595ZM66.1125 29.0207C64.8712 29.0207 63.8014 27.9842 63.8014 26.5071C63.8014 25.0144 64.8722 23.9936 66.1125 23.9936C67.3538 23.9936 68.4236 25.0144 68.4236 26.5071C68.4236 27.9833 67.3538 29.0207 66.1125 29.0207ZM57.1435 22.3595C54.8786 22.3595 53.0326 24.1037 53.0326 26.5061C53.0326 28.8939 54.8786 30.6528 57.1435 30.6528C59.4093 30.6528 61.2553 28.8939 61.2553 26.5061C61.2553 24.1037 59.4093 22.3595 57.1435 22.3595ZM57.1435 29.0207C55.9022 29.0207 54.8323 27.9842 54.8323 26.5071C54.8323 25.0144 55.9032 23.9936 57.1435 23.9936C58.3847 23.9936 59.4546 25.0144 59.4546 26.5071C59.4555 27.9833 58.3847 29.0207 57.1435 29.0207ZM46.4757 23.6328V25.3917H50.6338C50.5096 26.3813 50.1841 27.1038 49.6872 27.6059C49.0825 28.2182 48.1359 28.8939 46.4757 28.8939C43.9162 28.8939 41.9152 26.8045 41.9152 24.2129C41.9152 21.6214 43.9162 19.532 46.4757 19.532C47.8566 19.532 48.8649 20.0819 49.6092 20.7887L50.8351 19.5476C49.7951 18.5423 48.4152 17.7731 46.4757 17.7731C42.9696 17.7731 40.022 20.663 40.022 24.2129C40.022 27.7629 42.9696 30.6528 46.4757 30.6528C48.368 30.6528 49.796 30.0239 50.9121 28.8461C52.06 27.6839 52.4172 26.0498 52.4172 24.7307C52.4172 24.3231 52.3864 23.9458 52.3238 23.6318H46.4757V23.6328ZM90.1057 24.9988C89.7648 24.0725 88.7248 22.3595 86.5995 22.3595C84.4897 22.3595 82.7361 24.0404 82.7361 26.5061C82.7361 28.8305 84.4743 30.6528 86.8008 30.6528C88.6776 30.6528 89.7638 29.4906 90.2145 28.8149L88.8182 27.8721C88.3531 28.5634 87.7166 29.0187 86.8008 29.0187C85.886 29.0187 85.234 28.5946 84.8152 27.7619L90.2915 25.4687L90.1057 24.9988ZM84.5205 26.3813C84.4743 24.7784 85.7463 23.9624 86.6621 23.9624C87.3757 23.9624 87.9804 24.3241 88.1826 24.8418L84.5205 26.3813ZM80.0687 30.4022H81.8675V18.2138H80.0687V30.4022ZM77.1201 23.2867H77.0585C76.655 22.7992 75.8789 22.3595 74.9024 22.3595C72.8542 22.3595 70.9774 24.1817 70.9774 26.5227C70.9774 28.8471 72.8542 30.6538 74.9024 30.6538C75.8798 30.6538 76.655 30.2141 77.0585 29.7119H77.1201V30.3086C77.1201 31.895 76.2823 32.7432 74.9332 32.7432C73.8316 32.7432 73.1489 31.9427 72.8696 31.2671L71.3029 31.9271C71.7526 33.026 72.9466 34.3773 74.9332 34.3773C77.0431 34.3773 78.8274 33.1205 78.8274 30.0571V22.612H77.1211V23.2867H77.1201ZM75.0575 29.0207C73.8162 29.0207 72.7772 27.9677 72.7772 26.5227C72.7772 25.0612 73.8162 23.9936 75.0575 23.9936C76.2823 23.9936 77.2443 25.0612 77.2443 26.5227C77.2443 27.9677 76.2823 29.0207 75.0575 29.0207ZM98.5354 18.2138H94.23V30.4022H96.026V25.7846H98.5345C100.526 25.7846 102.485 24.3251 102.485 21.9997C102.485 19.6743 100.527 18.2138 98.5354 18.2138ZM98.5817 24.0881H96.026V19.9103H98.5817C99.925 19.9103 100.688 21.0364 100.688 21.9997C100.688 22.9435 99.925 24.0881 98.5817 24.0881ZM109.687 22.338C108.386 22.338 107.038 22.9181 106.481 24.2042L108.076 24.8779C108.416 24.2042 109.052 23.9838 109.717 23.9838C110.647 23.9838 111.591 24.5483 111.607 25.5516V25.6774C111.281 25.4892 110.584 25.2074 109.733 25.2074C108.014 25.2074 106.263 26.1639 106.263 27.9511C106.263 29.5823 107.673 30.6323 109.252 30.6323C110.46 30.6323 111.126 30.0834 111.544 29.4399H111.606V30.3808H113.341V25.7076C113.342 23.5451 111.745 22.338 109.687 22.338ZM109.469 29.0177C108.882 29.0177 108.06 28.7194 108.06 27.9823C108.06 27.0414 109.083 26.6807 109.966 26.6807C110.754 26.6807 111.127 26.8532 111.607 27.0882C111.467 28.2182 110.507 29.0177 109.469 29.0177ZM119.66 22.6042L117.6 27.8887H117.539L115.401 22.6042H113.465L116.671 29.9898L114.843 34.0985H116.717L121.658 22.6042H119.66ZM103.476 30.4022H105.272V18.2138H103.476V30.4022Z" fill="white"/>
<path d="M46.1618 11.1388C46.1618 11.9559 45.923 12.6062 45.4444 13.0918C44.9012 13.669 44.1925 13.9576 43.322 13.9576C42.4881 13.9576 41.7784 13.6651 41.1958 13.0801C40.6122 12.4941 40.3204 11.7687 40.3204 10.9029C40.3204 10.0361 40.6122 9.31072 41.1958 8.72572C41.7784 8.13974 42.4881 7.84724 43.322 7.84724C43.7361 7.84724 44.1318 7.92914 44.5074 8.09197C44.8839 8.25577 45.1853 8.47319 45.4107 8.74522L44.9032 9.26002C44.5209 8.79689 43.9941 8.56582 43.321 8.56582C42.7124 8.56582 42.1867 8.78227 41.7427 9.21517C41.2988 9.64807 41.0773 10.2106 41.0773 10.9019C41.0773 11.5932 41.2988 12.1558 41.7427 12.5887C42.1867 13.0216 42.7124 13.238 43.321 13.238C43.9662 13.238 44.5045 13.0206 44.935 12.5848C45.2142 12.301 45.376 11.9062 45.4193 11.4001H43.321V10.6972H46.1204C46.1492 10.8502 46.1618 10.9975 46.1618 11.1388Z" fill="white"/>
<path d="M50.6011 8.69555H47.9703V10.55H50.343V11.253H47.9703V13.1074H50.6011V13.827H47.2279V7.97697H50.6011V8.69555Z" fill="white"/>
<path d="M53.7316 13.827H52.9892V8.69555H51.3752V7.97697H55.3455V8.69555H53.7316V13.827Z" fill="white"/>
<path d="M58.218 13.827V7.97697H58.9604V13.827H58.218Z" fill="white"/>
<path d="M62.253 13.827H61.5105V8.69555H59.8966V7.97697H63.8669V8.69555H62.253V13.827Z" fill="white"/>
<path d="M71.3826 13.0713C70.8145 13.6622 70.1086 13.9576 69.2641 13.9576C68.4196 13.9576 67.7137 13.6622 67.1465 13.0713C66.5784 12.4805 66.2953 11.757 66.2953 10.902C66.2953 10.0469 66.5784 9.32344 67.1465 8.73259C67.7137 8.14174 68.4196 7.84534 69.2641 7.84534C70.1038 7.84534 70.8087 8.14271 71.3788 8.73649C71.9488 9.33026 72.2339 10.0518 72.2339 10.902C72.2339 11.757 71.9498 12.4805 71.3826 13.0713ZM67.6945 12.5809C68.122 13.0197 68.6449 13.2381 69.2641 13.2381C69.8833 13.2381 70.4071 13.0187 70.8337 12.5809C71.2613 12.1422 71.476 11.5825 71.476 10.902C71.476 10.2214 71.2613 9.66176 70.8337 9.22301C70.4071 8.78426 69.8833 8.56586 69.2641 8.56586C68.6449 8.56586 68.122 8.78524 67.6945 9.22301C67.2679 9.66176 67.0531 10.2214 67.0531 10.902C67.0531 11.5825 67.2679 12.1422 67.6945 12.5809Z" fill="white"/>
<path d="M73.2758 13.827V7.97697H74.1791L76.9871 12.5273H77.0189L76.9871 11.4002V7.97697H77.7295V13.827H76.9543L74.0163 9.05532H73.9846L74.0163 10.1824V13.827H73.2758Z" fill="white"/>
<path d="M46.1618 11.1388C46.1618 11.9559 45.923 12.6062 45.4444 13.0918C44.9012 13.669 44.1925 13.9576 43.322 13.9576C42.4881 13.9576 41.7784 13.6651 41.1958 13.0801C40.6122 12.4941 40.3204 11.7687 40.3204 10.9029C40.3204 10.0361 40.6122 9.31072 41.1958 8.72572C41.7784 8.13974 42.4881 7.84724 43.322 7.84724C43.7361 7.84724 44.1318 7.92914 44.5074 8.09197C44.8839 8.25577 45.1853 8.47319 45.4107 8.74522L44.9032 9.26002C44.5209 8.79689 43.9941 8.56582 43.321 8.56582C42.7124 8.56582 42.1867 8.78227 41.7427 9.21517C41.2988 9.64807 41.0773 10.2106 41.0773 10.9019C41.0773 11.5932 41.2988 12.1558 41.7427 12.5887C42.1867 13.0216 42.7124 13.238 43.321 13.238C43.9662 13.238 44.5045 13.0206 44.935 12.5848C45.2142 12.301 45.376 11.9062 45.4193 11.4001H43.321V10.6972H46.1204C46.1492 10.8502 46.1618 10.9975 46.1618 11.1388Z" stroke="white" stroke-width="0.2" stroke-miterlimit="10"/>
<path d="M50.6011 8.69555H47.9703V10.55H50.343V11.253H47.9703V13.1074H50.6011V13.827H47.2279V7.97697H50.6011V8.69555Z" stroke="white" stroke-width="0.2" stroke-miterlimit="10"/>
<path d="M53.7316 13.827H52.9892V8.69555H51.3752V7.97697H55.3455V8.69555H53.7316V13.827Z" stroke="white" stroke-width="0.2" stroke-miterlimit="10"/>
<path d="M58.218 13.827V7.97697H58.9604V13.827H58.218Z" stroke="white" stroke-width="0.2" stroke-miterlimit="10"/>
<path d="M62.253 13.827H61.5105V8.69555H59.8966V7.97697H63.8669V8.69555H62.253V13.827Z" stroke="white" stroke-width="0.2" stroke-miterlimit="10"/>
<path d="M71.3826 13.0713C70.8145 13.6622 70.1086 13.9576 69.2641 13.9576C68.4196 13.9576 67.7137 13.6622 67.1465 13.0713C66.5784 12.4805 66.2953 11.757 66.2953 10.902C66.2953 10.0469 66.5784 9.32344 67.1465 8.73259C67.7137 8.14174 68.4196 7.84534 69.2641 7.84534C70.1038 7.84534 70.8087 8.14271 71.3788 8.73649C71.9488 9.33026 72.2339 10.0518 72.2339 10.902C72.2339 11.757 71.9498 12.4805 71.3826 13.0713ZM67.6945 12.5809C68.122 13.0197 68.6449 13.2381 69.2641 13.2381C69.8833 13.2381 70.4071 13.0187 70.8337 12.5809C71.2613 12.1422 71.476 11.5825 71.476 10.902C71.476 10.2214 71.2613 9.66176 70.8337 9.22301C70.4071 8.78426 69.8833 8.56586 69.2641 8.56586C68.6449 8.56586 68.122 8.78524 67.6945 9.22301C67.2679 9.66176 67.0531 10.2214 67.0531 10.902C67.0531 11.5825 67.2679 12.1422 67.6945 12.5809Z" stroke="white" stroke-width="0.2" stroke-miterlimit="10"/>
<path d="M73.2758 13.827V7.97697H74.1791L76.9871 12.5273H77.0189L76.9871 11.4002V7.97697H77.7295V13.827H76.9543L74.0163 9.05532H73.9846L74.0163 10.1824V13.827H73.2758Z" stroke="white" stroke-width="0.2" stroke-miterlimit="10"/>
<path d="M20.7715 20.7848L10.5938 31.7681C10.5941 31.7704 10.5949 31.7723 10.5953 31.7746C10.9074 32.9671 11.9788 33.8453 13.2503 33.8453C13.7586 33.8453 14.2358 33.7056 14.6451 33.4603L14.6776 33.441L26.1339 26.7196L20.7715 20.7848Z" fill="#EA4335"/>
<path d="M31.0684 18.9142L31.0586 18.9074L26.1126 15.9922L20.5403 21.0336L26.132 26.7181L31.0519 23.8319C31.9145 23.3584 32.5 22.4339 32.5 21.3677C32.5 20.3092 31.9223 19.3892 31.0684 18.9142Z" fill="#FBBC04"/>
<path d="M10.5933 10.9222C10.5322 11.1516 10.5 11.3918 10.5 11.6413V31.0494C10.5 31.2984 10.5318 31.5395 10.5937 31.7681L21.1217 21.0657L10.5933 10.9222Z" fill="#4285F4"/>
<path d="M20.8466 21.3451L26.1145 15.9905L14.6712 9.24477C14.2552 8.99147 13.7698 8.84529 13.2503 8.84529C11.9788 8.84529 10.906 9.72502 10.5938 10.9191C10.5934 10.9203 10.5934 10.921 10.5934 10.9221L20.8466 21.3451Z" fill="#34A853"/>
</svg>
