<svg width="121" height="41" viewBox="0 0 121 41" fill="none" xmlns="http://www.w3.org/2000/svg">
<path d="M1 13.6453C1 11.3969 1.00039 9.7406 1.10733 8.43167C1.2138 7.12857 1.42338 6.21382 1.81745 5.44041C2.5365 4.02919 3.68386 2.88184 5.09507 2.16279C5.86848 1.76871 6.78324 1.55914 8.08633 1.45267C9.39526 1.34573 11.0515 1.34534 13.3 1.34534H107.7C109.948 1.34534 111.605 1.34573 112.914 1.45267C114.217 1.55914 115.132 1.76871 115.905 2.16279C117.316 2.88184 118.464 4.02919 119.183 5.44041C119.577 6.21382 119.786 7.12857 119.893 8.43167C120 9.7406 120 11.3969 120 13.6453V28.0453C120 30.2938 120 31.9501 119.893 33.259C119.786 34.5621 119.577 35.4769 119.183 36.2503C118.464 37.6615 117.316 38.8088 115.905 39.5279C115.132 39.922 114.217 40.1315 112.914 40.238C111.605 40.3449 109.948 40.3453 107.7 40.3453H13.3C11.0515 40.3453 9.39527 40.3449 8.08633 40.238C6.78324 40.1315 5.86848 39.922 5.09507 39.5279C3.68386 38.8088 2.5365 37.6615 1.81745 36.2503C1.42338 35.4769 1.2138 34.5621 1.10733 33.259C1.00039 31.9501 1 30.2938 1 28.0453V13.6453Z" stroke="#BFC8D1"/>
<path d="M8.96853 39.9703C8.663 39.9703 8.36484 39.9664 8.06171 39.9596C7.43373 39.9515 6.80722 39.897 6.18732 39.7965C5.60929 39.6973 5.04934 39.5126 4.52593 39.2486C4.00732 38.9869 3.5343 38.6436 3.12501 38.232C2.70978 37.8253 2.36409 37.3536 2.10163 36.8355C1.83628 36.3141 1.65264 35.7552 1.55711 35.1783C1.45394 34.5585 1.39813 33.9317 1.39014 33.3033C1.38378 33.0924 1.37546 32.3902 1.37546 32.3902V9.28968C1.37546 9.28968 1.38432 8.59827 1.39019 8.39514C1.39784 7.76782 1.45333 7.14199 1.55618 6.52307C1.65189 5.94459 1.83567 5.38409 2.10117 4.86097C2.36267 4.34328 2.70644 3.8712 3.11916 3.46302C3.53142 3.05096 4.00594 2.70594 4.52544 2.44055C5.04764 2.17743 5.60654 1.99407 6.1834 1.89661C6.80534 1.79517 7.43402 1.74033 8.06417 1.73255L8.96903 1.72034H112.026L112.942 1.73304C113.566 1.74044 114.189 1.79479 114.805 1.89563C115.388 1.99431 115.953 2.17895 116.481 2.44348C117.522 2.97832 118.369 3.8245 118.903 4.86341C119.164 5.38291 119.345 5.93884 119.439 6.51233C119.544 7.13633 119.602 7.76708 119.614 8.39954C119.617 8.68274 119.617 8.98694 119.617 9.28968C119.625 9.66468 119.625 10.0216 119.625 10.3815V31.3101C119.625 31.6734 119.625 32.0279 119.617 32.3853C119.617 32.7105 119.617 33.0084 119.613 33.315C119.601 33.9362 119.544 34.5557 119.441 35.1685C119.348 35.7496 119.165 36.3128 118.9 36.8385C118.635 37.351 118.292 37.8186 117.881 38.2242C117.472 38.638 116.998 38.9833 116.478 39.2467C115.951 39.5127 115.387 39.6981 114.805 39.7965C114.185 39.8975 113.559 39.952 112.931 39.9596C112.637 39.9664 112.33 39.9703 112.031 39.9703L110.944 39.9723L8.96853 39.9703Z" fill="black"/>
<path d="M26.133 21.1459C26.1438 20.3112 26.3655 19.4929 26.7777 18.7669C27.1898 18.041 27.7788 17.431 28.4901 16.9939C28.0382 16.3487 27.4422 15.8177 26.7492 15.4432C26.0563 15.0686 25.2855 14.8608 24.4981 14.8362C22.8186 14.6599 21.1903 15.841 20.3344 15.841C19.462 15.841 18.1442 14.8537 16.7252 14.8829C15.8074 14.9125 14.9128 15.1794 14.1288 15.6574C13.3448 16.1355 12.698 16.8084 12.2514 17.6107C10.3171 20.9591 11.7599 25.8802 13.6129 28.5868C14.54 29.9122 15.6235 31.3926 17.0412 31.3401C18.4285 31.2826 18.9467 30.4556 20.6213 30.4556C22.2804 30.4556 22.7665 31.3401 24.213 31.3067C25.7017 31.2826 26.6396 29.9755 27.5341 28.6376C28.2002 27.6932 28.7128 26.6495 29.0529 25.5451C28.188 25.1794 27.4499 24.5672 26.9307 23.7849C26.4115 23.0026 26.1341 22.0848 26.133 21.1459Z" fill="white"/>
<path d="M23.4009 13.0562C24.2126 12.082 24.6125 10.8298 24.5157 9.56555C23.2756 9.69577 22.1301 10.2883 21.3075 11.2252C20.9052 11.6828 20.5972 12.2153 20.4009 12.792C20.2046 13.3688 20.124 13.9786 20.1635 14.5866C20.7838 14.5929 21.3974 14.4585 21.9582 14.1934C22.519 13.9283 23.0123 13.5395 23.4009 13.0562Z" fill="white"/>
<path d="M42.921 27.9849H38.1743L37.0344 31.3413H35.0239L39.5199 18.9233H41.6088L46.1047 31.3413H44.06L42.921 27.9849ZM38.666 26.4361H42.4285L40.5737 20.9888H40.5218L38.666 26.4361Z" fill="white"/>
<path d="M55.8146 26.815C55.8146 29.6285 54.3045 31.4361 52.0256 31.4361C51.4484 31.4662 50.8743 31.3336 50.369 31.0535C49.8638 30.7734 49.448 30.357 49.169 29.8521H49.1259V34.3365H47.2623V22.2877H49.0662V23.7935H49.1005C49.3922 23.2911 49.8151 22.8769 50.3242 22.595C50.8332 22.3132 51.4094 22.1742 51.9914 22.193C54.2956 22.193 55.8146 24.0094 55.8146 26.815ZM53.899 26.815C53.899 24.982 52.9491 23.7769 51.4997 23.7769C50.0758 23.7769 49.1181 25.0074 49.1181 26.815C49.1181 28.6393 50.0758 29.8609 51.4997 29.8609C52.9491 29.8609 53.899 28.6646 53.899 26.815Z" fill="white"/>
<path d="M65.8074 26.815C65.8074 29.6285 64.2973 31.4361 62.0184 31.4361C61.4412 31.4662 60.8671 31.3336 60.3618 31.0535C59.8566 30.7733 59.4408 30.357 59.1618 29.8521H59.1187V34.3365H57.2551V22.2877H59.0589V23.7935H59.0932C59.385 23.2911 59.8079 22.8769 60.317 22.595C60.826 22.3132 61.4022 22.1742 61.9841 22.193C64.2885 22.193 65.8074 24.0094 65.8074 26.815ZM63.8918 26.815C63.8918 24.982 62.9419 23.7769 61.4925 23.7769C60.0686 23.7769 59.1109 25.0074 59.1109 26.815C59.1109 28.6392 60.0686 29.8609 61.4925 29.8609C62.9419 29.8609 63.8918 28.6646 63.8918 26.815H63.8918Z" fill="white"/>
<path d="M72.4118 27.8814C72.5499 29.1128 73.7495 29.9214 75.3889 29.9214C76.9597 29.9214 78.0898 29.1128 78.0898 28.0024C78.0898 27.0386 77.4082 26.4614 75.7943 26.0659L74.1804 25.6782C71.8938 25.1274 70.8322 24.061 70.8322 22.3306C70.8322 20.188 72.7046 18.7163 75.3634 18.7163C77.9948 18.7163 79.7987 20.188 79.8594 22.3306H77.9781C77.8655 21.0913 76.8382 20.3433 75.337 20.3433C73.8357 20.3433 72.8084 21.1001 72.8084 22.2017C72.8084 23.0796 73.4645 23.5962 75.0696 23.9917L76.4416 24.3276C78.9966 24.9301 80.0582 25.9536 80.0582 27.77C80.0582 30.0932 78.2024 31.5483 75.2508 31.5483C72.4891 31.5483 70.6245 30.1274 70.5041 27.8813L72.4118 27.8814Z" fill="white"/>
<path d="M84.0802 20.145V22.2876H85.8067V23.7593H84.0802V28.7505C84.0802 29.5259 84.4259 29.8872 85.1848 29.8872C85.3898 29.8836 85.5944 29.8693 85.7979 29.8442V31.3071C85.4567 31.3707 85.1098 31.3995 84.7628 31.393C82.9246 31.393 82.2078 30.7046 82.2078 28.9487V23.7593H80.8877V22.2876H82.2077V20.145H84.0802Z" fill="white"/>
<path d="M86.8066 26.8149C86.8066 23.9663 88.489 22.1763 91.1126 22.1763C93.745 22.1763 95.4196 23.9663 95.4196 26.8149C95.4196 29.6714 93.7538 31.4536 91.1126 31.4536C88.4724 31.4536 86.8066 29.6714 86.8066 26.8149ZM93.5207 26.8149C93.5207 24.8608 92.6227 23.7075 91.1126 23.7075C89.6025 23.7075 88.7055 24.8696 88.7055 26.8149C88.7055 28.7768 89.6025 29.9214 91.1126 29.9214C92.6227 29.9214 93.5207 28.7768 93.5207 26.8149H93.5207Z" fill="white"/>
<path d="M96.9561 22.2876H98.7335V23.8286H98.7766C98.8969 23.3473 99.1797 22.922 99.5774 22.6241C99.9751 22.3262 100.463 22.1739 100.96 22.1929C101.175 22.1921 101.389 22.2154 101.599 22.2622V24.0005C101.328 23.9179 101.045 23.8799 100.762 23.8882C100.491 23.8772 100.221 23.9248 99.9705 24.0277C99.7199 24.1306 99.4947 24.2863 99.3102 24.4842C99.1257 24.6821 98.9863 24.9175 98.9017 25.1741C98.817 25.4308 98.789 25.7027 98.8197 25.9712V31.3413H96.9561L96.9561 22.2876Z" fill="white"/>
<path d="M110.191 28.6821C109.941 30.3257 108.336 31.4536 106.282 31.4536C103.641 31.4536 102.001 29.689 102.001 26.8579C102.001 24.0181 103.65 22.1763 106.204 22.1763C108.716 22.1763 110.295 23.897 110.295 26.6421V27.2788H103.883V27.3911C103.853 27.7243 103.895 28.06 104.005 28.3758C104.116 28.6917 104.293 28.9804 104.524 29.223C104.755 29.4655 105.035 29.6563 105.345 29.7826C105.656 29.9089 105.99 29.9679 106.325 29.9556C106.765 29.9967 107.207 29.895 107.585 29.6656C107.963 29.4361 108.256 29.0912 108.422 28.6821L110.191 28.6821ZM103.892 25.98H108.431C108.447 25.6804 108.402 25.3806 108.297 25.0994C108.192 24.8182 108.03 24.5616 107.821 24.3458C107.611 24.1301 107.36 23.9597 107.082 23.8455C106.803 23.7313 106.504 23.6757 106.204 23.6821C105.9 23.6803 105.599 23.7385 105.319 23.8532C105.038 23.968 104.782 24.137 104.567 24.3507C104.353 24.5643 104.182 24.8183 104.066 25.0979C103.95 25.3776 103.891 25.6774 103.892 25.98V25.98Z" fill="white"/>
<path d="M38.4324 9.57635C38.8231 9.54839 39.2151 9.60725 39.5803 9.74868C39.9454 9.89012 40.2745 10.1106 40.5439 10.3942C40.8132 10.6778 41.0161 11.0175 41.1378 11.3888C41.2595 11.7601 41.2971 12.1537 41.2479 12.5412C41.2479 14.4474 40.2147 15.5432 38.4324 15.5432H36.2711V9.57635H38.4324ZM37.2004 14.6994H38.3286C38.6078 14.716 38.8871 14.6703 39.1464 14.5657C39.4057 14.4611 39.6383 14.3002 39.8273 14.0946C40.0163 13.889 40.157 13.644 40.2391 13.3774C40.3212 13.1108 40.3426 12.8293 40.3019 12.5534C40.3397 12.2785 40.3161 11.9987 40.2327 11.7341C40.1494 11.4694 40.0083 11.2264 39.8197 11.0225C39.6312 10.8186 39.3997 10.6587 39.1419 10.5545C38.8841 10.4503 38.6063 10.4042 38.3286 10.4196H37.2004V14.6994Z" fill="white"/>
<path d="M42.2977 13.2897C42.2693 12.9938 42.3033 12.6953 42.3974 12.4132C42.4915 12.1311 42.6436 11.8718 42.8442 11.6518C43.0447 11.4318 43.2891 11.2561 43.5617 11.1358C43.8343 11.0155 44.1291 10.9534 44.4272 10.9534C44.7253 10.9534 45.0201 11.0155 45.2927 11.1358C45.5653 11.2561 45.8097 11.4318 46.0102 11.6518C46.2107 11.8718 46.3629 12.1311 46.457 12.4132C46.5511 12.6953 46.5851 12.9938 46.5567 13.2897C46.5856 13.586 46.5521 13.885 46.4582 14.1675C46.3644 14.45 46.2123 14.7098 46.0117 14.9302C45.8112 15.1506 45.5666 15.3268 45.2937 15.4473C45.0208 15.5679 44.7257 15.6301 44.4272 15.6301C44.1287 15.6301 43.8336 15.5679 43.5607 15.4473C43.2878 15.3268 43.0432 15.1506 42.8427 14.9302C42.6421 14.7098 42.49 14.45 42.3962 14.1675C42.3023 13.885 42.2688 13.586 42.2977 13.2897ZM45.6401 13.2897C45.6401 12.3137 45.2003 11.7429 44.4287 11.7429C43.654 11.7429 43.2183 12.3137 43.2183 13.2898C43.2183 14.2736 43.6541 14.84 44.4287 14.84C45.2004 14.84 45.6401 14.2697 45.6401 13.2897H45.6401Z" fill="white"/>
<path d="M52.2181 15.5431H51.2936L50.3603 12.2267H50.2898L49.3605 15.5431H48.4448L47.2001 11.0402H48.104L48.9129 14.4762H48.9795L49.9079 11.0402H50.7628L51.6912 14.4762H51.7617L52.5667 11.0402H53.4579L52.2181 15.5431Z" fill="white"/>
<path d="M54.5047 11.0402H55.3626V11.7555H55.4292C55.5421 11.4986 55.7327 11.2832 55.9742 11.1394C56.2158 10.9956 56.4963 10.9306 56.7767 10.9533C56.9964 10.9368 57.217 10.9698 57.4222 11.0499C57.6274 11.13 57.8118 11.2551 57.9619 11.416C58.112 11.5768 58.2239 11.7693 58.2893 11.9791C58.3547 12.1889 58.3719 12.4107 58.3397 12.6281V15.5431H57.4485V12.8512C57.4485 12.1276 57.1332 11.7677 56.4741 11.7677C56.3249 11.7608 56.176 11.7861 56.0375 11.842C55.8991 11.8978 55.7744 11.9828 55.672 12.0912C55.5696 12.1996 55.4919 12.3288 55.4442 12.4699C55.3966 12.611 55.3801 12.7608 55.3959 12.9089V15.5431H54.5047L54.5047 11.0402Z" fill="white"/>
<path d="M59.7597 9.28235H60.6508V15.5431H59.7597V9.28235Z" fill="white"/>
<path d="M61.8896 13.2897C61.8613 12.9938 61.8952 12.6952 61.9894 12.4131C62.0835 12.131 62.2357 11.8717 62.4362 11.6517C62.6367 11.4317 62.8812 11.2559 63.1538 11.1357C63.4264 11.0154 63.7212 10.9532 64.0194 10.9532C64.3175 10.9532 64.6123 11.0154 64.885 11.1357C65.1576 11.2559 65.402 11.4317 65.6025 11.6517C65.8031 11.8717 65.9553 12.131 66.0494 12.4131C66.1435 12.6952 66.1775 12.9938 66.1491 13.2897C66.178 13.5859 66.1444 13.8849 66.0505 14.1675C65.9567 14.45 65.8045 14.7098 65.604 14.9302C65.4034 15.1506 65.1588 15.3267 64.8859 15.4473C64.613 15.5678 64.3178 15.6301 64.0194 15.6301C63.7209 15.6301 63.4257 15.5678 63.1528 15.4473C62.8799 15.3267 62.6353 15.1506 62.4348 14.9302C62.2342 14.7098 62.0821 14.45 61.9882 14.1675C61.8943 13.8849 61.8607 13.5859 61.8896 13.2897ZM65.232 13.2897C65.232 12.3136 64.7923 11.7428 64.0206 11.7428C63.246 11.7428 62.8102 12.3136 62.8102 13.2897C62.8102 14.2736 63.246 14.84 64.0206 14.84C64.7923 14.84 65.232 14.2697 65.232 13.2897H65.232Z" fill="white"/>
<path d="M67.0873 14.2696C67.0873 13.4591 67.6925 12.9918 68.7668 12.9254L69.99 12.8551V12.4664C69.99 11.9908 69.6746 11.7223 69.0655 11.7223C68.568 11.7223 68.2233 11.9044 68.1244 12.2228H67.2616C67.3527 11.4493 68.0823 10.9532 69.1066 10.9532C70.2387 10.9532 70.8772 11.5152 70.8772 12.4664V15.5431H70.0193V14.9103H69.9488C69.8057 15.1373 69.6048 15.3223 69.3665 15.4465C69.1282 15.5707 68.8611 15.6297 68.5925 15.6173C68.4029 15.6369 68.2113 15.6168 68.0301 15.5581C67.8488 15.4994 67.6819 15.4034 67.5401 15.2765C67.3983 15.1495 67.2847 14.9943 67.2067 14.8209C67.1287 14.6475 67.0881 14.4597 67.0873 14.2696ZM69.99 13.8849V13.5084L68.8873 13.5787C68.2654 13.6202 67.9834 13.8312 67.9834 14.2281C67.9834 14.6334 68.3359 14.8692 68.8207 14.8692C68.9628 14.8836 69.1062 14.8693 69.2426 14.8272C69.379 14.7851 69.5055 14.7161 69.6146 14.6242C69.7237 14.5324 69.8131 14.4196 69.8776 14.2926C69.9421 14.1656 69.9803 14.0269 69.99 13.8849Z" fill="white"/>
<path d="M72.0485 13.2897C72.0485 11.8668 72.782 10.9655 73.9228 10.9655C74.2051 10.9525 74.4851 11.0199 74.7303 11.1598C74.9756 11.2997 75.1758 11.5063 75.3076 11.7555H75.3742V9.28235H76.2653V15.5431H75.4114V14.8317H75.3409C75.1989 15.0791 74.9917 15.2832 74.7417 15.4217C74.4918 15.5601 74.2086 15.6278 73.9229 15.6173C72.7741 15.6173 72.0485 14.716 72.0485 13.2897ZM72.969 13.2897C72.969 14.2448 73.4205 14.8195 74.1755 14.8195C74.9267 14.8195 75.3909 14.2365 75.3909 13.2936C75.3909 12.3551 74.9218 11.7638 74.1755 11.7638C73.4254 11.7638 72.969 12.3424 72.969 13.2897H72.969Z" fill="white"/>
<path d="M79.9524 13.2897C79.924 12.9938 79.958 12.6953 80.0521 12.4132C80.1462 12.1311 80.2984 11.8718 80.4989 11.6518C80.6994 11.4318 80.9438 11.2561 81.2164 11.1358C81.489 11.0155 81.7838 10.9534 82.0819 10.9534C82.38 10.9534 82.6748 11.0155 82.9475 11.1358C83.2201 11.2561 83.4645 11.4318 83.665 11.6518C83.8655 11.8718 84.0176 12.1311 84.1118 12.4132C84.2059 12.6953 84.2398 12.9938 84.2114 13.2897C84.2403 13.586 84.2068 13.885 84.1129 14.1675C84.0191 14.45 83.867 14.7098 83.6664 14.9302C83.4659 15.1506 83.2213 15.3268 82.9484 15.4473C82.6755 15.5679 82.3804 15.6301 82.0819 15.6301C81.7835 15.6301 81.4883 15.5679 81.2154 15.4473C80.9425 15.3268 80.6979 15.1506 80.4974 14.9302C80.2968 14.7098 80.1447 14.45 80.0509 14.1675C79.957 13.885 79.9235 13.586 79.9524 13.2897ZM83.2948 13.2897C83.2948 12.3137 82.8551 11.7429 82.0834 11.7429C81.3088 11.7429 80.873 12.3137 80.873 13.2898C80.873 14.2736 81.3088 14.84 82.0834 14.84C82.8551 14.84 83.2948 14.2697 83.2948 13.2897Z" fill="white"/>
<path d="M85.4071 11.0402H86.265V11.7555H86.3316C86.4446 11.4986 86.6351 11.2832 86.8767 11.1394C87.1182 10.9956 87.3987 10.9306 87.6791 10.9533C87.8988 10.9368 88.1195 10.9698 88.3246 11.0499C88.5298 11.13 88.7143 11.2551 88.8644 11.416C89.0145 11.5768 89.1264 11.7693 89.1918 11.9791C89.2571 12.1889 89.2743 12.4107 89.2421 12.6281V15.5431H88.3509V12.8512C88.3509 12.1276 88.0356 11.7677 87.3765 11.7677C87.2273 11.7608 87.0784 11.7861 86.94 11.842C86.8015 11.8978 86.6768 11.9828 86.5744 12.0912C86.472 12.1996 86.3943 12.3288 86.3467 12.4699C86.299 12.611 86.2825 12.7608 86.2983 12.9089V15.5431H85.4071V11.0402Z" fill="white"/>
<path d="M94.2777 9.91907V11.0607H95.256V11.8092H94.2777V14.1246C94.2777 14.5963 94.4726 14.8029 94.9162 14.8029C95.0298 14.8025 95.1432 14.7956 95.256 14.7823V15.5226C95.096 15.5511 94.9338 15.5663 94.7713 15.568C93.7802 15.568 93.3856 15.2203 93.3856 14.3522V11.8092H92.6687V11.0606H93.3856V9.91907H94.2777Z" fill="white"/>
<path d="M96.4733 9.28235H97.3566V11.7638H97.4271C97.5456 11.5045 97.7413 11.2879 97.9877 11.1435C98.2341 10.9992 98.5191 10.9341 98.804 10.9572C99.0225 10.9453 99.241 10.9817 99.4439 11.0637C99.6467 11.1458 99.8289 11.2714 99.9775 11.4318C100.126 11.5921 100.237 11.7832 100.303 11.9913C100.369 12.1994 100.388 12.4195 100.359 12.6359V15.5431H99.467V12.8551C99.467 12.1359 99.1311 11.7716 98.5014 11.7716C98.3483 11.7591 98.1942 11.7801 98.05 11.8331C97.9058 11.8862 97.775 11.97 97.6667 12.0787C97.5584 12.1875 97.4753 12.3185 97.4231 12.4626C97.3709 12.6068 97.3509 12.7605 97.3645 12.9132V15.5431H96.4733L96.4733 9.28235Z" fill="white"/>
<path d="M105.555 14.3272C105.434 14.7388 105.172 15.0947 104.814 15.3329C104.457 15.571 104.026 15.6762 103.599 15.63C103.301 15.6378 103.006 15.581 102.732 15.4634C102.459 15.3459 102.215 15.1705 102.016 14.9493C101.818 14.7282 101.67 14.4667 101.583 14.1828C101.496 13.899 101.472 13.5997 101.513 13.3057C101.473 13.0109 101.498 12.7109 101.584 12.4263C101.671 12.1416 101.818 11.8788 102.015 11.6557C102.213 11.4327 102.456 11.2545 102.729 11.1333C103.001 11.0121 103.296 10.9507 103.595 10.9532C104.851 10.9532 105.609 11.8092 105.609 13.2232V13.5333H102.421V13.5831C102.407 13.7483 102.427 13.9147 102.482 14.0714C102.536 14.2282 102.623 14.3719 102.736 14.4933C102.849 14.6148 102.986 14.7113 103.139 14.7767C103.292 14.8421 103.457 14.8749 103.623 14.8731C103.836 14.8986 104.052 14.8603 104.244 14.7631C104.435 14.6659 104.593 14.5142 104.697 14.3272L105.555 14.3272ZM102.421 12.8761H104.701C104.713 12.7249 104.692 12.5731 104.641 12.4304C104.59 12.2877 104.509 12.1572 104.405 12.0473C104.3 11.9375 104.173 11.8507 104.033 11.7925C103.893 11.7343 103.742 11.7061 103.59 11.7096C103.436 11.7076 103.283 11.7365 103.14 11.7944C102.997 11.8524 102.868 11.9382 102.759 12.0469C102.65 12.1557 102.564 12.285 102.506 12.4274C102.447 12.5698 102.419 12.7224 102.421 12.8761H102.421Z" fill="white"/>
</svg>
