<svg width="16" height="18" viewBox="0 0 16 18" fill="none" xmlns="http://www.w3.org/2000/svg">
<path d="M11.5395 6.95973C11.4062 6.82556 11.2259 6.75025 11.038 6.75025C10.85 6.75025 10.6697 6.82556 10.5364 6.95973L7.98221 9.50992L5.46362 6.95973C5.33032 6.82556 5.14999 6.75024 4.96204 6.75024C4.77408 6.75024 4.59375 6.82556 4.46045 6.95973C4.39377 7.0267 4.34084 7.10637 4.30472 7.19416C4.2686 7.28195 4.25 7.37611 4.25 7.47121C4.25 7.56631 4.2686 7.66047 4.30472 7.74825C4.34084 7.83604 4.39377 7.91572 4.46045 7.98269L7.47707 11.0372C7.54321 11.1047 7.6219 11.1583 7.7086 11.1948C7.7953 11.2314 7.88829 11.2502 7.98221 11.2502C8.07613 11.2502 8.16913 11.2314 8.25583 11.1948C8.34252 11.1583 8.42121 11.1047 8.48735 11.0372L11.5395 7.98269C11.6062 7.91572 11.6592 7.83604 11.6953 7.74826C11.7314 7.66047 11.75 7.56631 11.75 7.47121C11.75 7.37611 11.7314 7.28195 11.6953 7.19416C11.6592 7.10638 11.6062 7.0267 11.5395 6.95973Z" fill="#8F95B2"/>
</svg>
