<svg width="24" height="24" viewBox="0 0 24 24" fill="none" xmlns="http://www.w3.org/2000/svg">
<path fill-rule="evenodd" clip-rule="evenodd" d="M19.1111 5.77778H18.0705C17.7044 4.74205 16.7166 4 15.5556 4C14.3945 4 13.4067 4.74205 13.0406 5.77778H4.88889C4.39797 5.77778 4 6.17575 4 6.66667C4 7.15758 4.39797 7.55556 4.88889 7.55556H13.0406C13.4067 8.59128 14.3945 9.33333 15.5556 9.33333C16.7166 9.33333 17.7044 8.59128 18.0705 7.55556H19.1111C19.602 7.55556 20 7.15758 20 6.66667C20 6.17575 19.602 5.77778 19.1111 5.77778ZM15.5556 7.55556C16.0465 7.55556 16.4444 7.15758 16.4444 6.66667C16.4444 6.17575 16.0465 5.77778 15.5556 5.77778C15.0646 5.77778 14.6667 6.17575 14.6667 6.66667C14.6667 7.15758 15.0646 7.55556 15.5556 7.55556ZM4 12C4 11.5091 4.39797 11.1111 4.88889 11.1111H5.92952C6.29559 10.0754 7.28336 9.33333 8.44444 9.33333C9.60553 9.33333 10.5933 10.0754 10.9594 11.1111H19.1111C19.602 11.1111 20 11.5091 20 12C20 12.4909 19.602 12.8889 19.1111 12.8889H10.9594C10.5933 13.9246 9.60553 14.6667 8.44444 14.6667C7.28336 14.6667 6.29559 13.9246 5.92952 12.8889H4.88889C4.39797 12.8889 4 12.4909 4 12ZM8.44444 12.8889C8.93537 12.8889 9.33333 12.4909 9.33333 12C9.33333 11.5091 8.93537 11.1111 8.44444 11.1111C7.95353 11.1111 7.55556 11.5091 7.55556 12C7.55556 12.4909 7.95353 12.8889 8.44444 12.8889ZM4.88889 16.4444C4.39797 16.4444 4 16.8424 4 17.3333C4 17.8243 4.39797 18.2222 4.88889 18.2222H13.0406C13.4067 19.258 14.3945 20 15.5556 20C16.7166 20 17.7044 19.258 18.0705 18.2222H19.1111C19.602 18.2222 20 17.8243 20 17.3333C20 16.8424 19.602 16.4444 19.1111 16.4444H18.0705C17.7044 15.4087 16.7166 14.6667 15.5556 14.6667C14.3945 14.6667 13.4067 15.4087 13.0406 16.4444H4.88889ZM16.4444 17.3333C16.4444 17.8243 16.0465 18.2222 15.5556 18.2222C15.0646 18.2222 14.6667 17.8243 14.6667 17.3333C14.6667 16.8424 15.0646 16.4444 15.5556 16.4444C16.0465 16.4444 16.4444 16.8424 16.4444 17.3333Z" fill="#2E334C"/>
</svg>
