<svg width="16" height="16" viewBox="0 0 16 16" fill="none" xmlns="http://www.w3.org/2000/svg">
<path d="M14.0003 8.66665H3.33366C3.15696 8.66665 2.9875 8.5965 2.86249 8.47162C2.73748 8.34674 2.66717 8.17735 2.66699 8.00065V7.33398C2.66752 6.80371 2.87841 6.29531 3.25336 5.92036C3.62832 5.5454 4.13672 5.33451 4.66699 5.33398H12.667C13.1973 5.33451 13.7057 5.5454 14.0806 5.92036C14.4556 6.29531 14.6665 6.80371 14.667 7.33398V8.00065C14.667 8.17735 14.5968 8.34681 14.472 8.47182C14.3471 8.59682 14.1777 8.66714 14.001 8.66732L14.0003 8.66665Z" fill="#E9F8FE"/>
<path d="M4 8.66699V12.667C4.00053 13.1973 4.21141 13.7057 4.58637 14.0806C4.96133 14.4556 5.46973 14.6665 6 14.667H11.3333C11.8636 14.6665 12.372 14.4556 12.747 14.0806C13.1219 13.7057 13.3328 13.1973 13.3333 12.667V8.66699H4Z" fill="#B0E8FD"/>
<path d="M10.3337 1.33301C9.70571 1.33301 9.10438 1.58767 8.66705 2.03901C8.3983 1.7636 8.06557 1.55897 7.69854 1.44338C7.3315 1.32779 6.94157 1.30481 6.5635 1.37651C6.18543 1.44822 5.83098 1.61236 5.53175 1.85431C5.23253 2.09626 4.99782 2.4085 4.84857 2.76318C4.69932 3.11786 4.64016 3.50397 4.67636 3.88707C4.71256 4.27017 4.843 4.63836 5.05606 4.9588C5.26911 5.27925 5.55814 5.54199 5.8974 5.72361C6.23665 5.90522 6.61557 6.00006 7.00038 5.99967H8.00038V14.6663H9.33371V5.99967H10.3337C10.6401 5.99967 10.9435 5.93932 11.2266 5.82206C11.5097 5.7048 11.767 5.53293 11.9836 5.31626C12.2003 5.09959 12.3722 4.84236 12.4894 4.55927C12.6067 4.27618 12.667 3.97276 12.667 3.66634C12.667 3.35992 12.6067 3.05651 12.4894 2.77341C12.3722 2.49032 12.2003 2.2331 11.9836 2.01643C11.767 1.79976 11.5097 1.62788 11.2266 1.51062C10.9435 1.39336 10.6401 1.33301 10.3337 1.33301ZM6.00038 3.66634C6.00038 3.40112 6.10574 3.14677 6.29327 2.95923C6.48081 2.7717 6.73516 2.66634 7.00038 2.66634C7.2656 2.66634 7.51995 2.7717 7.70749 2.95923C7.89502 3.14677 8.00038 3.40112 8.00038 3.66634V4.66634H7.00038C6.44838 4.66634 6.00038 4.21834 6.00038 3.66634ZM10.3337 4.66634H9.33371V3.66634C9.33371 3.46856 9.39236 3.27522 9.50224 3.11077C9.61213 2.94632 9.7683 2.81815 9.95103 2.74246C10.1338 2.66677 10.3348 2.64697 10.5288 2.68556C10.7228 2.72414 10.901 2.81938 11.0408 2.95923C11.1807 3.09909 11.2759 3.27727 11.3145 3.47125C11.3531 3.66523 11.3333 3.8663 11.2576 4.04902C11.1819 4.23175 11.0537 4.38793 10.8893 4.49781C10.7248 4.60769 10.5315 4.66634 10.3337 4.66634Z" fill="#00C6FF"/>
</svg>
