<svg width="187" height="36" viewBox="0 0 187 36" fill="none" xmlns="http://www.w3.org/2000/svg">
<g clip-path="url(#clip0_1_2701)">
<g clip-path="url(#clip1_1_2701)">
<path d="M107.014 28.739H105.538V33.8582H107.014V28.739Z" fill="#B5BFC9"/>
<path d="M107.014 27.0526H105.538V28.1848H107.014V27.0526Z" fill="#B5BFC9"/>
<path d="M74.8362 27.0526H73.2944V33.8582H78.0038V32.5535H74.8362V27.0526Z" fill="#B5BFC9"/>
<path d="M81.0511 28.3137C79.4103 28.3137 78.1107 29.564 78.1107 31.1402C78.1107 32.7167 79.4103 33.9667 81.0511 33.9667C82.703 33.9667 84.0028 32.7167 84.0028 31.1402C84.0028 29.564 82.7032 28.3137 81.0511 28.3137ZM81.0511 32.6187C80.2251 32.6187 79.6085 31.999 79.6085 31.1402C79.6085 30.2923 80.2251 29.6617 81.0511 29.6617C81.8772 29.6617 82.4938 30.2923 82.4938 31.1402C82.4938 31.9992 81.8772 32.6187 81.0511 32.6187Z" fill="#B5BFC9"/>
<path d="M90.1909 32.7059C89.9267 32.7059 89.6953 32.5538 89.6953 32.0861V29.9128H91.1023V28.7391H89.6953V27.2638H88.2195V28.7391H86.2824V27.2638H84.8066V28.7391H84.0027V29.9128H84.8066V32.1078C84.8066 33.3362 85.4013 33.9668 86.5026 33.9668C87.0863 33.9668 87.571 33.7711 87.9013 33.5538L87.4827 32.4775C87.4386 32.5102 87.1304 32.7059 86.7778 32.7059C86.5135 32.7059 86.2821 32.5538 86.2821 32.0861V29.9128H88.2192V32.1078C88.2192 33.3362 88.8139 33.9668 89.9152 33.9668C90.4989 33.9668 90.9833 33.7711 91.3139 33.5538L90.8953 32.4775C90.8517 32.5102 90.5433 32.7059 90.1909 32.7059Z" fill="#B5BFC9"/>
<path d="M99.5193 30.7541C99.2941 29.2264 97.9442 28.1459 96.4619 28.3588C94.86 28.5889 93.8232 30.012 94.0514 31.5614C94.3129 33.3364 95.8586 34.1583 97.4498 33.9296C98.1582 33.828 98.8381 33.5326 99.3896 33.0468L98.6925 32.0923C98.3289 32.4191 97.8061 32.648 97.283 32.7231C96.5637 32.8265 95.8902 32.5607 95.6065 31.8434L99.5627 31.2754C99.5629 31.2751 99.5574 31.0123 99.5193 30.7541ZM95.4437 30.8887C95.4855 30.1907 95.9638 29.6606 96.5958 29.5697C97.2605 29.4742 97.8722 29.8479 98.0811 30.5099L95.4437 30.8887Z" fill="#B5BFC9"/>
<path d="M115.536 30.7541C115.311 29.2264 113.961 28.1459 112.479 28.3588C110.877 28.5889 109.84 30.012 110.068 31.5614C110.33 33.3364 111.875 34.1583 113.467 33.9296C114.175 33.828 114.855 33.5326 115.406 33.0468L114.709 32.0923C114.346 32.4191 113.823 32.648 113.3 32.7231C112.58 32.8265 111.907 32.5607 111.623 31.8434L115.579 31.2754C115.579 31.2751 115.574 31.0123 115.536 30.7541ZM111.46 30.8887C111.502 30.1907 111.98 29.6606 112.613 29.5697C113.278 29.4742 113.889 29.8479 114.098 30.5099L111.46 30.8887Z" fill="#B5BFC9"/>
<path d="M109.437 27.0526H107.961V33.8582H109.437V27.0526Z" fill="#B5BFC9"/>
<path d="M118.592 30.4555C118.085 30.3467 117.623 30.249 117.623 29.9445C117.623 29.7164 117.942 29.564 118.283 29.564C118.768 29.564 119.274 29.6837 119.814 29.9445L120.31 28.8574C119.737 28.5313 119.165 28.314 118.261 28.314C117.226 28.314 116.125 28.901 116.125 30.01C116.125 31.0536 117.017 31.4124 118.107 31.695C118.581 31.8254 119.054 31.9015 119.054 32.2276C119.054 32.5537 118.493 32.6842 118.151 32.6842C117.325 32.6842 116.808 32.3905 116.433 32.108L115.904 33.2279C116.213 33.5104 116.973 33.967 118.151 33.967C119.175 33.967 120.552 33.5212 120.552 32.184C120.552 31.075 119.528 30.6728 118.592 30.4555Z" fill="#B5BFC9"/>
<path d="M93.3842 28.739H91.9084V33.8582H93.3842V28.739Z" fill="#B5BFC9"/>
<path d="M93.3842 27.0526H91.9084V28.1848H93.3842V27.0526Z" fill="#B5BFC9"/>
<path d="M100.147 33.8582H101.686V31.0778H104.296V29.7866H101.686V28.3546H104.857V27.0526H100.147V33.8582Z" fill="#B5BFC9"/>
<path d="M48.4082 29.6099H47.5495V28.4364H48.4082V28.078C48.4082 26.8176 49.1125 26.2744 50.048 26.2744C50.5435 26.2744 51.0937 26.4157 51.479 26.6114L51.0606 27.6867C50.9394 27.6325 50.6971 27.524 50.444 27.524C50.1361 27.524 49.8825 27.6761 49.8825 28.241V28.4366H51.2583V29.6102H49.8825V33.8585H48.4077V29.6099H48.4082Z" fill="#B5BFC9"/>
<path d="M51.733 28.4256H53.1859V29.4686C53.3402 29.0232 53.9012 28.317 55.1122 28.317V29.9033C53.8354 29.9033 53.2081 30.4792 53.2081 31.7721V33.8583H51.733V28.4256Z" fill="#B5BFC9"/>
<path d="M55.2072 31.1421C55.2072 29.5666 56.506 28.317 58.1464 28.317C59.7975 28.317 61.096 29.5666 61.096 31.1421C61.096 32.7175 59.7975 33.9671 58.1464 33.9671C56.506 33.9668 55.2072 32.7175 55.2072 31.1421ZM59.5883 31.1421C59.5883 30.2946 58.9717 29.6643 58.1464 29.6643C57.3206 29.6643 56.7045 30.2946 56.7045 31.1421C56.7045 32.0005 57.3208 32.6195 58.1464 32.6195C58.9717 32.6195 59.5883 32.0005 59.5883 31.1421Z" fill="#B5BFC9"/>
<path d="M61.5747 28.4256H63.0166V29.1536C63.3358 28.6645 63.985 28.317 64.6455 28.317C65.5152 28.317 66.0545 28.6754 66.3405 29.2838C66.7369 28.6321 67.4964 28.317 68.1237 28.317C69.6756 28.317 70.16 29.3709 70.16 30.7615V33.858H68.685V30.9461C68.685 30.2292 68.5089 29.6966 67.7273 29.6966C67.0007 29.6966 66.6045 30.2725 66.6045 30.9897V33.858H65.1295V30.9461C65.1295 30.2292 64.9642 29.6966 64.1718 29.6966C63.423 29.6966 63.049 30.3266 63.049 31.0439V33.858H61.574V28.4256H61.5747Z" fill="#B5BFC9"/>
<path d="M47.5495 2.87122H52.1357V23.1554H47.5495V2.87122Z" fill="black"/>
<path d="M54.182 15.0713C54.182 10.3827 58.0472 6.66394 62.9281 6.66394C65.1883 6.66394 67.1536 7.40749 68.7917 8.73337L66.1383 11.773C65.3848 11.094 64.3366 10.6736 63.0261 10.6736C60.4712 10.6736 58.6368 12.5168 58.6368 15.0713C58.6368 17.5934 60.3727 19.4689 63.157 19.4689C64.5328 19.4689 65.876 18.9515 66.7275 18.1432L69.0535 21.3766C67.4809 22.7025 65.2863 23.4785 62.9279 23.4785C58.0472 23.4785 54.182 19.76 54.182 15.0713Z" fill="black"/>
<path d="M69.129 15.0713C69.129 10.3827 72.9942 6.66394 77.8751 6.66394C82.7885 6.66394 86.6542 10.3827 86.6542 15.0713C86.6542 19.76 82.7885 23.4785 77.8751 23.4785C72.9942 23.4785 69.129 19.76 69.129 15.0713ZM82.1662 15.0713C82.1662 12.549 80.3318 10.6736 77.8751 10.6736C75.4185 10.6736 73.5841 12.549 73.5841 15.0713C73.5841 17.6259 75.4185 19.4689 77.8751 19.4689C80.3318 19.4689 82.1662 17.6259 82.1662 15.0713Z" fill="black"/>
<path d="M88.298 6.98734H92.5891V9.15374C93.8993 7.37524 95.7666 6.66394 97.7647 6.66394C102.089 6.66394 103.596 9.41243 103.596 13.8424V23.1551H99.2061V14.392C99.2061 12.0317 98.5838 10.7705 96.3562 10.7705C94.1616 10.7705 92.6875 12.5168 92.6875 14.9741V23.1551H88.298V6.98734Z" fill="black"/>
<path d="M105.069 20.6653L106.74 17.173C108.443 18.4017 110.474 19.4689 113.717 19.4689C115.486 19.4689 117.648 18.6606 117.648 17.0113C117.648 15.3945 115.748 14.9741 113.881 14.5215C109.917 13.616 105.822 12.2904 105.822 7.92486C105.822 3.88299 109.655 1.87805 113.717 1.87805C116.927 1.87805 119.351 2.71882 121.48 4.10918L119.81 7.60146C118.107 6.50202 115.879 5.91993 113.717 5.91993C112.603 5.91993 110.507 6.34031 110.507 7.92462C110.507 9.28274 112.047 9.76785 114.143 10.253C117.91 11.126 122.431 12.5166 122.431 17.0111C122.431 21.5381 117.975 23.5105 113.717 23.5105C108.64 23.5108 106.248 21.603 105.069 20.6653Z" fill="black"/>
<path d="M123.528 15.0713C123.528 10.3827 127.393 6.66394 132.274 6.66394C134.534 6.66394 136.499 7.40749 138.137 8.73337L135.484 11.773C134.73 11.094 133.682 10.6736 132.372 10.6736C129.817 10.6736 127.982 12.5168 127.982 15.0713C127.982 17.5934 129.718 19.4689 132.503 19.4689C133.879 19.4689 135.222 18.9515 136.073 18.1432L138.399 21.3766C136.827 22.7025 134.632 23.4785 132.274 23.4785C127.393 23.4785 123.528 19.76 123.528 15.0713Z" fill="black"/>
<path d="M138.474 15.0713C138.474 10.3827 142.34 6.66394 147.22 6.66394C152.134 6.66394 156 10.3827 156 15.0713C156 19.76 152.134 23.4785 147.22 23.4785C142.34 23.4785 138.474 19.76 138.474 15.0713ZM151.512 15.0713C151.512 12.549 149.677 10.6736 147.221 10.6736C144.764 10.6736 142.93 12.549 142.93 15.0713C142.93 17.6259 144.764 19.4689 147.221 19.4689C149.677 19.4689 151.512 17.6259 151.512 15.0713Z" fill="black"/>
<path d="M157.473 16.656V6.98743H161.862V16.0739C161.862 18.3373 162.845 19.372 164.876 19.372C167.169 19.372 168.283 17.4643 168.283 15.2654V6.98743H172.672V23.1554H168.545V20.8918C167.562 22.4764 165.335 23.4786 163.435 23.4786C158.914 23.4786 157.473 20.8593 157.473 16.656Z" fill="black"/>
<path d="M176.836 17.9491V10.4794H174.444V6.98711H176.836V3.5H181.225V6.98711H184.801V10.4794H181.225V17.8843C181.225 19.2749 181.913 19.7275 182.699 19.7275C183.747 19.7275 184.665 19.1455 184.796 19.0485L186.04 22.2499C185.058 22.8964 183.616 23.4785 181.88 23.4785C178.604 23.4785 176.836 21.603 176.836 17.9491Z" fill="black"/>
<path d="M39.2758 13.1736L33.8541 4.38301C32.1753 1.6611 29.1806 0 25.9525 0H15.5126C12.2845 0 9.28975 1.6611 7.61099 4.38301L2.18923 13.1736C0.390292 16.0905 0.390292 19.7545 2.18923 22.6716L7.61099 31.4622C9.28975 34.1841 12.2845 35.8452 15.5126 35.8452H25.9525C29.1806 35.8452 32.1753 34.1841 33.8541 31.4622L39.2758 22.6716C41.0748 19.7548 41.0748 16.0907 39.2758 13.1736Z" fill="#00C6FF"/>
<path d="M31.5104 26.0197L25.5076 20.6564L25.6228 20.4912C26.3586 19.4349 26.874 18.234 27.0528 16.9642C27.79 11.7292 23.4307 7.26641 18.1735 7.72174C14.1852 8.06705 10.989 11.2837 10.7097 15.2261C10.3739 19.963 14.1834 23.9234 18.912 23.9234C20.1659 23.9234 21.3712 23.6503 22.494 23.1115L22.7194 23.0032L29.0644 28.6734C29.4229 28.9956 29.8882 29.158 30.3756 29.1386C30.8596 29.1157 31.3064 28.9077 31.633 28.5528C32.3057 27.8208 32.2511 26.6847 31.5104 26.0197ZM19.4476 20.9458C16.1424 21.2719 13.3753 18.5409 13.7052 15.2783C13.9495 12.863 15.928 10.9093 18.3747 10.6674C21.6804 10.3405 24.4482 13.0723 24.1176 16.3356C23.873 18.7509 21.8943 20.7044 19.4476 20.9458Z" fill="white"/>
</g>
</g>
<defs>
<clipPath id="clip0_1_2701">
<rect width="185.32" height="35.8452" fill="white" transform="translate(0.840027)"/>
</clipPath>
<clipPath id="clip1_1_2701">
<rect width="185.2" height="35.8452" fill="white" transform="translate(0.840027)"/>
</clipPath>
</defs>
</svg>
