<svg width="170" height="34" viewBox="0 0 170 34" fill="none" xmlns="http://www.w3.org/2000/svg">
<g clip-path="url(#clip0_1_2360)">
<g clip-path="url(#clip1_1_2360)">
<path d="M97.3958 26.9226H96.042V31.6186H97.3958V26.9226Z" fill="#B5BFC9"/>
<path d="M97.3958 25.3757H96.042V26.4143H97.3958V25.3757Z" fill="#B5BFC9"/>
<path d="M67.8783 25.3757H66.4639V31.6187H70.784V30.4219H67.8783V25.3757Z" fill="#B5BFC9"/>
<path d="M73.5792 26.533C72.0739 26.533 70.8818 27.6799 70.8818 29.1258C70.8818 30.5719 72.0739 31.7187 73.5792 31.7187C75.0944 31.7187 76.2868 30.5719 76.2868 29.1258C76.2868 27.6799 75.0947 26.533 73.5792 26.533ZM73.5792 30.4821C72.8214 30.4821 72.2558 29.9135 72.2558 29.1258C72.2558 28.348 72.8214 27.7695 73.5792 27.7695C74.3369 27.7695 74.9025 28.348 74.9025 29.1258C74.9025 29.9138 74.3369 30.4821 73.5792 30.4821Z" fill="#B5BFC9"/>
<path d="M81.9637 30.5613C81.7213 30.5613 81.5091 30.4218 81.5091 29.9928V27.9992H82.7997V26.9224H81.5091V25.5691H80.1552V26.9224H78.3783V25.5691H77.0245V26.9224H76.2871V27.9992H77.0245V30.0127C77.0245 31.1395 77.57 31.718 78.5803 31.718C79.1157 31.718 79.5603 31.5385 79.8634 31.3391L79.4794 30.3518C79.4389 30.3818 79.1562 30.5613 78.8328 30.5613C78.5903 30.5613 78.3781 30.4218 78.3781 29.9928V27.9992H80.155V30.0127C80.155 31.1395 80.7005 31.718 81.7108 31.718C82.2462 31.718 82.6906 31.5385 82.9939 31.3391L82.6099 30.3518C82.5699 30.3818 82.2869 30.5613 81.9637 30.5613Z" fill="#B5BFC9"/>
<path d="M90.5212 28.7714C90.3147 27.37 89.0764 26.3788 87.7166 26.5741C86.2471 26.7852 85.2961 28.0907 85.5054 29.512C85.7453 31.1403 87.1631 31.8941 88.6228 31.6844C89.2726 31.5912 89.8964 31.3202 90.4023 30.8745L89.7628 29.999C89.4293 30.2988 88.9497 30.5088 88.4698 30.5776C87.81 30.6725 87.1922 30.4286 86.9319 29.7707L90.561 29.2496C90.5613 29.2494 90.5562 29.0082 90.5212 28.7714ZM86.7825 28.8949C86.821 28.2546 87.2596 27.7683 87.8395 27.685C88.4492 27.5973 89.0103 27.9401 89.202 28.5474L86.7825 28.8949Z" fill="#B5BFC9"/>
<path d="M105.214 28.7714C105.007 27.37 103.769 26.3788 102.409 26.5741C100.939 26.7852 99.9885 28.0907 100.198 29.512C100.438 31.1403 101.856 31.8941 103.315 31.6844C103.965 31.5912 104.589 31.3202 105.095 30.8745L104.455 29.999C104.122 30.2988 103.642 30.5088 103.162 30.5776C102.502 30.6725 101.885 30.4286 101.624 29.7707L105.253 29.2496C105.253 29.2494 105.248 29.0082 105.214 28.7714ZM101.475 28.8949C101.513 28.2546 101.952 27.7683 102.532 27.685C103.142 27.5973 103.703 27.9401 103.894 28.5474L101.475 28.8949Z" fill="#B5BFC9"/>
<path d="M99.6185 25.3757H98.2646V31.6187H99.6185V25.3757Z" fill="#B5BFC9"/>
<path d="M108.017 28.4975C107.552 28.3977 107.128 28.308 107.128 28.0287C107.128 27.8194 107.421 27.6797 107.734 27.6797C108.179 27.6797 108.643 27.7894 109.138 28.0287L109.593 27.0315C109.068 26.7323 108.542 26.533 107.714 26.533C106.764 26.533 105.754 27.0714 105.754 28.0888C105.754 29.0461 106.572 29.3753 107.572 29.6345C108.007 29.7541 108.441 29.8239 108.441 30.1231C108.441 30.4222 107.926 30.5419 107.613 30.5419C106.855 30.5419 106.38 30.2725 106.037 30.0133L105.552 31.0406C105.835 31.2998 106.532 31.7186 107.613 31.7186C108.552 31.7186 109.815 31.3098 109.815 30.0831C109.815 29.0657 108.876 28.6968 108.017 28.4975Z" fill="#B5BFC9"/>
<path d="M84.8931 26.9226H83.5393V31.6186H84.8931V26.9226Z" fill="#B5BFC9"/>
<path d="M84.8931 25.3757H83.5393V26.4143H84.8931V25.3757Z" fill="#B5BFC9"/>
<path d="M91.0967 31.6187H92.5083V29.0681H94.9026V27.8837H92.5083V26.5701H95.4168V25.3757H91.0967V31.6187Z" fill="#B5BFC9"/>
<path d="M43.6354 27.7216H42.8477V26.6451H43.6354V26.3164C43.6354 25.1602 44.2815 24.6619 45.1397 24.6619C45.5941 24.6619 46.0989 24.7915 46.4523 24.971L46.0685 25.9574C45.9573 25.9077 45.735 25.8082 45.5029 25.8082C45.2204 25.8082 44.9878 25.9477 44.9878 26.4659V26.6453H46.2499V27.7219H44.9878V31.619H43.6349V27.7216H43.6354Z" fill="#B5BFC9"/>
<path d="M46.6853 26.6352H48.0181V27.5921C48.1596 27.1834 48.6743 26.5356 49.7852 26.5356V27.9908C48.6139 27.9908 48.0384 28.5191 48.0384 29.7051V31.6188H46.6853V26.6352Z" fill="#B5BFC9"/>
<path d="M49.8723 29.1271C49.8723 27.6819 51.0637 26.5356 52.5685 26.5356C54.0831 26.5356 55.2743 27.6819 55.2743 29.1271C55.2743 30.5724 54.0831 31.7186 52.5685 31.7186C51.0637 31.7184 49.8723 30.5724 49.8723 29.1271ZM53.8912 29.1271C53.8912 28.3498 53.3255 27.7716 52.5685 27.7716C51.811 27.7716 51.2458 28.3498 51.2458 29.1271C51.2458 29.9147 51.8112 30.4825 52.5685 30.4825C53.3255 30.4825 53.8912 29.9147 53.8912 29.1271Z" fill="#B5BFC9"/>
<path d="M55.7133 26.6352H57.036V27.3031C57.3288 26.8544 57.9244 26.5356 58.5303 26.5356C59.3281 26.5356 59.8228 26.8644 60.0851 27.4225C60.4488 26.8247 61.1455 26.5356 61.7209 26.5356C63.1445 26.5356 63.5889 27.5024 63.5889 28.7781V31.6186H62.2358V28.9474C62.2358 28.2897 62.0743 27.8011 61.3573 27.8011C60.6908 27.8011 60.3273 28.3295 60.3273 28.9874V31.6186H58.9742V28.9474C58.9742 28.2897 58.8226 27.8011 58.0957 27.8011C57.4088 27.8011 57.0658 28.3791 57.0658 29.0371V31.6186H55.7126V26.6352H55.7133Z" fill="#B5BFC9"/>
<path d="M42.8477 3.19312H47.0548V21.8005H42.8477V3.19312Z" fill="black"/>
<path d="M48.9316 14.384C48.9316 10.0829 52.4773 6.67163 56.9547 6.67163C59.0281 6.67163 60.8309 7.35371 62.3336 8.56999L59.8995 11.3584C59.2083 10.7354 58.2468 10.3498 57.0446 10.3498C54.7009 10.3498 53.0182 12.0407 53.0182 14.384C53.0182 16.6976 54.6106 18.418 57.1647 18.418C58.4268 18.418 59.6589 17.9434 60.44 17.202L62.5737 20.168C61.1312 21.3843 59.118 22.0962 56.9545 22.0962C52.4773 22.0962 48.9316 18.6851 48.9316 14.384Z" fill="black"/>
<path d="M62.6436 14.384C62.6436 10.0829 66.1892 6.67163 70.6667 6.67163C75.1738 6.67163 78.7199 10.0829 78.7199 14.384C78.7199 18.6851 75.1738 22.0962 70.6667 22.0962C66.1892 22.0962 62.6436 18.6851 62.6436 14.384ZM74.6029 14.384C74.6029 12.0702 72.9202 10.3498 70.6667 10.3498C68.4131 10.3498 66.7303 12.0702 66.7303 14.384C66.7303 16.7274 68.4131 18.418 70.6667 18.418C72.9202 18.418 74.6029 16.7274 74.6029 14.384Z" fill="black"/>
<path d="M80.2275 6.96927H84.1638V8.95658C85.3658 7.3251 87.0787 6.67261 88.9116 6.67261C92.8781 6.67261 94.2605 9.19389 94.2605 13.2577V21.8005H90.2339V13.7618C90.2339 11.5966 89.663 10.4397 87.6196 10.4397C85.6064 10.4397 84.2542 12.0416 84.2542 14.2958V21.8005H80.2275V6.96927Z" fill="black"/>
<path d="M95.6123 19.5161L97.145 16.3126C98.7076 17.4397 100.571 18.4186 103.546 18.4186C105.168 18.4186 107.151 17.6772 107.151 16.1642C107.151 14.6811 105.408 14.2955 103.696 13.8802C100.06 13.0496 96.3035 11.8336 96.3035 7.82892C96.3035 4.12118 99.8194 2.28198 103.545 2.28198C106.49 2.28198 108.714 3.05324 110.667 4.32867L109.135 7.53225C107.572 6.5237 105.529 5.98972 103.546 5.98972C102.524 5.98972 100.601 6.37536 100.601 7.8287C100.601 9.07455 102.013 9.51955 103.936 9.96456C107.392 10.7654 111.539 12.0411 111.539 16.164C111.539 20.3168 107.452 22.1262 103.546 22.1262C98.8878 22.1264 96.6942 20.3764 95.6123 19.5161Z" fill="black"/>
<path d="M112.545 14.385C112.545 10.0839 116.091 6.67261 120.568 6.67261C122.641 6.67261 124.444 7.35469 125.947 8.57096L123.513 11.3593C122.822 10.7364 121.86 10.3508 120.658 10.3508C118.314 10.3508 116.632 12.0416 116.632 14.385C116.632 16.6985 118.224 18.419 120.778 18.419C122.04 18.419 123.272 17.9444 124.054 17.2029L126.187 20.169C124.745 21.3853 122.731 22.0972 120.568 22.0972C116.091 22.0972 112.545 18.6861 112.545 14.385Z" fill="black"/>
<path d="M126.256 14.385C126.256 10.0839 129.802 6.67261 134.279 6.67261C138.786 6.67261 142.332 10.0839 142.332 14.385C142.332 18.6861 138.786 22.0972 134.279 22.0972C129.802 22.0972 126.256 18.6861 126.256 14.385ZM138.215 14.385C138.215 12.0712 136.533 10.3508 134.279 10.3508C132.026 10.3508 130.343 12.0712 130.343 14.385C130.343 16.7284 132.026 18.419 134.279 18.419C136.533 18.419 138.215 16.7284 138.215 14.385Z" fill="black"/>
<path d="M143.685 15.8378V6.96851H147.711V15.3038C147.711 17.3801 148.613 18.3293 150.476 18.3293C152.579 18.3293 153.601 16.5793 153.601 14.5621V6.96851H157.627V21.7999H153.841V19.7234C152.94 21.177 150.896 22.0964 149.153 22.0964C145.007 22.0964 143.685 19.6936 143.685 15.8378Z" fill="black"/>
<path d="M161.446 17.0239V10.1717H159.253V6.96812H161.446V3.76929H165.473V6.96812H168.753V10.1717H165.473V16.9645C165.473 18.2401 166.104 18.6553 166.825 18.6553C167.787 18.6553 168.628 18.1214 168.748 18.0324L169.89 20.9691C168.989 21.5623 167.667 22.0962 166.074 22.0962C163.069 22.0962 161.446 20.3758 161.446 17.0239Z" fill="black"/>
<path d="M35.2584 12.6439L30.2849 4.58C28.7449 2.08311 25.9977 0.559326 23.0364 0.559326H13.4597C10.4984 0.559326 7.75121 2.08311 6.21122 4.58L1.23767 12.6439C-0.412557 15.3196 -0.412557 18.6808 1.23767 21.3567L6.21122 29.4207C7.75121 31.9175 10.4984 33.4413 13.4597 33.4413H23.0364C25.9977 33.4413 28.7449 31.9175 30.2849 29.4207L35.2584 21.3567C36.9087 18.681 36.9087 15.3199 35.2584 12.6439Z" fill="#00C6FF"/>
<path d="M28.1352 24.4277L22.6287 19.5078L22.7344 19.3563C23.4093 18.3873 23.8821 17.2857 24.0461 16.1209C24.7224 11.3186 20.7235 7.22474 15.9009 7.64243C12.2422 7.9592 9.31025 10.9099 9.05408 14.5264C8.74599 18.8718 12.2406 22.5048 16.5783 22.5048C17.7286 22.5048 18.8342 22.2542 19.8642 21.7599L20.0709 21.6606L25.8914 26.8621C26.2203 27.1576 26.6471 27.3067 27.0943 27.2888C27.5382 27.2678 27.9481 27.077 28.2477 26.7515C28.8648 26.08 28.8147 25.0378 28.1352 24.4277ZM17.0696 19.7733C14.0377 20.0725 11.4993 17.5672 11.8019 14.5743C12.0261 12.3587 13.841 10.5665 16.0854 10.3446C19.1178 10.0447 21.6569 12.5506 21.3536 15.5442C21.1292 17.7598 19.3141 19.5518 17.0696 19.7733Z" fill="white"/>
</g>
</g>
<defs>
<clipPath id="clip0_1_2360">
<rect width="170" height="32.882" fill="white" transform="translate(0 0.559326)"/>
</clipPath>
<clipPath id="clip1_1_2360">
<rect width="169.89" height="32.882" fill="white" transform="translate(0 0.559326)"/>
</clipPath>
</defs>
</svg>
