<svg width="30" height="30" viewBox="0 0 30 30" fill="none" xmlns="http://www.w3.org/2000/svg">
<rect width="30" height="30.0004" rx="4" fill="#FAFAFC"/>
<path fill-rule="evenodd" clip-rule="evenodd" d="M8.84076 11.9009C8.84076 10.2108 10.2109 8.84066 11.901 8.84066H18.099C19.7891 8.84066 21.1593 10.2108 21.1593 11.9009V18.0989C21.1593 19.789 19.7891 21.1592 18.099 21.1592H11.901C10.2109 21.1592 8.84076 19.789 8.84076 18.0989V11.9009ZM11.901 9.79619C10.7386 9.79619 9.79629 10.7385 9.79629 11.9009V18.0989C9.79629 19.2613 10.7386 20.2037 11.901 20.2037H18.099C19.2614 20.2037 20.2038 19.2613 20.2038 18.0989V11.9009C20.2038 10.7385 19.2614 9.79619 18.099 9.79619H11.901Z" fill="black"/>
<path fill-rule="evenodd" clip-rule="evenodd" d="M13.7905 6.47776C13.7905 6.2139 14.0044 6 14.2683 6H15.7317C15.9956 6 16.2095 6.2139 16.2095 6.47776C16.2095 6.74162 15.9956 6.95552 15.7317 6.95552H14.2683C14.0044 6.95552 13.7905 6.74162 13.7905 6.47776ZM8.47309 7.04032C8.63387 7.24954 8.5946 7.54948 8.38538 7.71026C8.13206 7.90493 7.90493 8.13206 7.71026 8.38538C7.54948 8.5946 7.24954 8.63387 7.04032 8.47309C6.8311 8.31231 6.79183 8.01237 6.95261 7.80315C7.19788 7.48398 7.48398 7.19788 7.80315 6.95261C8.01237 6.79183 8.31231 6.8311 8.47309 7.04032ZM21.5269 7.04032C21.6877 6.8311 21.9876 6.79183 22.1968 6.95261C22.516 7.19788 22.8021 7.48398 23.0474 7.80315C23.2082 8.01237 23.1689 8.31231 22.9597 8.47309C22.7505 8.63387 22.4505 8.5946 22.2897 8.38538C22.0951 8.13206 21.8679 7.90493 21.6146 7.71026C21.4054 7.54948 21.3661 7.24954 21.5269 7.04032ZM23.5222 13.7905C23.7861 13.7905 24 14.0044 24 14.2683V15.7317C24 15.9956 23.7861 16.2095 23.5222 16.2095C23.2584 16.2095 23.0445 15.9956 23.0445 15.7317V14.2683C23.0445 14.0044 23.2584 13.7905 23.5222 13.7905ZM6.47776 13.7905C6.74162 13.7905 6.95552 14.0044 6.95552 14.2683V15.7317C6.95552 15.9956 6.74162 16.2095 6.47776 16.2095C6.2139 16.2095 6 15.9956 6 15.7317V14.2683C6 14.0044 6.2139 13.7905 6.47776 13.7905ZM7.04032 21.5269C7.24954 21.3661 7.54948 21.4054 7.71026 21.6146C7.90493 21.8679 8.13206 22.0951 8.38538 22.2897C8.5946 22.4505 8.63387 22.7505 8.47309 22.9597C8.31231 23.1689 8.01237 23.2082 7.80315 23.0474C7.48398 22.8021 7.19788 22.516 6.95261 22.1968C6.79183 21.9876 6.8311 21.6877 7.04032 21.5269ZM22.9597 21.5269C23.1689 21.6877 23.2082 21.9876 23.0474 22.1968C22.8021 22.516 22.516 22.8021 22.1968 23.0474C21.9876 23.2082 21.6877 23.1689 21.5269 22.9597C21.3661 22.7505 21.4054 22.4505 21.6146 22.2897C21.8679 22.0951 22.0951 21.8679 22.2897 21.6146C22.4505 21.4054 22.7505 21.3661 22.9597 21.5269ZM13.7905 23.5222C13.7905 23.2584 14.0044 23.0445 14.2683 23.0445H15.7317C15.9956 23.0445 16.2095 23.2584 16.2095 23.5222C16.2095 23.7861 15.9956 24 15.7317 24H14.2683C14.0044 24 13.7905 23.7861 13.7905 23.5222Z" fill="black"/>
<path fill-rule="evenodd" clip-rule="evenodd" d="M12.086 14.1456C12.263 13.9686 12.5467 13.9582 12.7361 14.1218L19.3152 19.8033C19.5149 19.9758 19.537 20.2775 19.3645 20.4772C19.192 20.6769 18.8903 20.6989 18.6906 20.5265L12.4477 15.1352L9.78549 17.7974C9.59892 17.984 9.29641 17.984 9.10984 17.7974C8.92326 17.6108 8.92326 17.3083 9.10984 17.1217L12.086 14.1456Z" fill="black"/>
<path fill-rule="evenodd" clip-rule="evenodd" d="M16.2543 14.1309C16.434 13.9665 16.7087 13.9636 16.8918 14.1242L20.8675 17.6106C21.0659 17.7845 21.0857 18.0864 20.9117 18.2848C20.7377 18.4832 20.4359 18.5029 20.2375 18.329L16.5836 15.1248L15.0644 16.5145C14.8697 16.6926 14.5675 16.6792 14.3894 16.4845C14.2113 16.2898 14.2247 15.9876 14.4194 15.8095L16.2543 14.1309Z" fill="black"/>
<path fill-rule="evenodd" clip-rule="evenodd" d="M14.3544 12.9728C13.9765 12.9728 13.6701 12.6664 13.6701 12.2884C13.6701 11.9105 13.9765 11.6041 14.3544 11.6041C14.7324 11.6041 15.0388 11.9105 15.0388 12.2884C15.0388 12.6664 14.7324 12.9728 14.3544 12.9728ZM12.7145 12.2884C12.7145 13.1941 13.4487 13.9283 14.3544 13.9283C15.2601 13.9283 15.9943 13.1941 15.9943 12.2884C15.9943 11.3828 15.2601 10.6486 14.3544 10.6486C13.4487 10.6486 12.7145 11.3828 12.7145 12.2884Z" fill="black"/>
<path d="M23.5222 17.5835C23.7861 17.5835 24 17.7974 24 18.0613V18.793C24 18.9966 23.9868 19.1974 23.9611 19.3944C23.9269 19.6561 23.6872 19.8405 23.4255 19.8064C23.1639 19.7723 22.9794 19.5325 23.0136 19.2708C23.0339 19.1147 23.0445 18.9552 23.0445 18.793V18.0613C23.0445 17.7974 23.2584 17.5835 23.5222 17.5835Z" fill="black"/>
<path d="M6.47776 17.5835C6.74162 17.5835 6.95552 17.7974 6.95552 18.0613V18.793C6.95552 18.9552 6.96606 19.1147 6.98644 19.2708C7.02056 19.5325 6.83613 19.7723 6.57448 19.8064C6.31284 19.8405 6.07307 19.6561 6.03894 19.3944C6.01323 19.1974 6 18.9966 6 18.793V18.0613C6 17.7974 6.2139 17.5835 6.47776 17.5835Z" fill="black"/>
<path d="M6.57448 9.89591C6.83613 9.93004 7.02056 10.1698 6.98644 10.4315C6.96606 10.5877 6.95552 10.7471 6.95552 10.9093V11.641C6.95552 11.9049 6.74162 12.1188 6.47776 12.1188C6.2139 12.1188 6 11.9049 6 11.641V10.9093C6 10.7057 6.01323 10.5049 6.03894 10.3079C6.07307 10.0462 6.31284 9.86178 6.57448 9.89591Z" fill="black"/>
<path d="M23.4255 9.89591C23.6872 9.86178 23.9269 10.0462 23.9611 10.3079C23.9868 10.5049 24 10.7057 24 10.9093V11.641C24 11.9049 23.7861 12.1188 23.5222 12.1188C23.2584 12.1188 23.0445 11.9049 23.0445 11.641V10.9093C23.0445 10.7471 23.0339 10.5877 23.0136 10.4315C22.9794 10.1698 23.1639 9.93004 23.4255 9.89591Z" fill="black"/>
<path d="M20.0037 23.426C20.0378 23.6877 19.8533 23.9274 19.5917 23.9616C19.3946 23.9873 19.1939 24.0005 18.9902 24.0005H18.2585C17.9947 24.0005 17.7808 23.7866 17.7808 23.5227C17.7808 23.2589 17.9947 23.045 18.2585 23.045H18.9902C19.1524 23.045 19.3119 23.0345 19.4681 23.0141C19.7298 22.9799 19.9695 23.1644 20.0037 23.426Z" fill="black"/>
<path d="M17.7808 6.47776C17.7808 6.2139 17.9947 6 18.2585 6H18.9902C19.1939 6 19.3946 6.01323 19.5917 6.03894C19.8533 6.07307 20.0378 6.31284 20.0037 6.57448C19.9695 6.83613 19.7298 7.02056 19.4681 6.98644C19.3119 6.96606 19.1524 6.95552 18.9902 6.95552H18.2585C17.9947 6.95552 17.7808 6.74162 17.7808 6.47776Z" fill="black"/>
<path d="M9.93302 23.426C9.96715 23.1644 10.2069 22.9799 10.4686 23.0141C10.6248 23.0345 10.7843 23.045 10.9464 23.045H11.6782C11.942 23.045 12.1559 23.2589 12.1559 23.5227C12.1559 23.7866 11.942 24.0005 11.6782 24.0005H10.9464C10.7428 24.0005 10.542 23.9873 10.345 23.9616C10.0833 23.9274 9.89889 23.6877 9.93302 23.426Z" fill="black"/>
<path d="M10.9464 6.95552C10.7843 6.95552 10.6248 6.96606 10.4686 6.98644C10.2069 7.02056 9.96715 6.83613 9.93302 6.57448C9.89889 6.31284 10.0833 6.07307 10.345 6.03894C10.542 6.01323 10.7428 6 10.9464 6H11.6782C11.942 6 12.1559 6.2139 12.1559 6.47776C12.1559 6.74162 11.942 6.95552 11.6782 6.95552H10.9464Z" fill="black"/>
</svg>
